<svg width="128" height="128" viewBox="0 0 128 128" fill="none" xmlns="http://www.w3.org/2000/svg">
<g id="Group 38495">
<g id="Ellipse 43" filter="url(#filter0_b_0_291)">
<circle cx="64" cy="64" r="64" fill="#1F4955" fill-opacity="0.15"/>
</g>
<g id="Group 38502">
<path id="Vector" d="M91.5 47.9613L91.5 80.0678C91.5 93.7131 87.436 98.1759 74.764 98.497C74.124 98.497 73.484 98.2722 73.036 97.8228C72.588 97.3733 72.3 96.7632 72.3 96.089C72.3 91.2409 68.332 87.2918 63.5 87.2918C58.668 87.2918 54.7 91.2409 54.7 96.089C54.7 96.7311 54.444 97.3412 53.964 97.8228C53.484 98.3043 52.876 98.5291 52.236 98.497C39.564 98.1759 35.5 93.7131 35.5 80.0678L35.5 47.9613C35.5 33.8023 39.788 29.5 53.9 29.5L73.1 29.5C87.212 29.5 91.5 33.8023 91.5 47.9613ZM76.876 93.5847C85.004 93.0389 86.7 90.2777 86.7 80.0678L86.7 47.9613C86.7 36.4671 84.524 34.316 73.1 34.316L53.9 34.316C42.476 34.316 40.3 36.4671 40.3 47.9613L40.3 80.0678C40.3 90.2777 42.028 93.0389 50.124 93.5847C51.34 87.2597 56.876 82.4758 63.5 82.4758C70.124 82.4758 75.66 87.2597 76.876 93.5847Z" fill="white"/>
<path id="Vector_2" d="M51.9109 53.2683C51.6981 52.5358 51.7378 51.7299 52.0024 50.991C52.504 49.6538 53.7334 48.7009 55.1934 48.5414L59.1364 48.0909L61.0483 44.6559C61.7432 43.3949 63.0978 42.6372 64.539 42.6488C65.989 42.6908 67.2869 43.5052 67.8665 44.7931L69.4989 48.2905L73.4188 48.9389C74.8589 49.1824 76.0029 50.1739 76.3931 51.5168C76.7921 52.8903 76.3576 54.3404 75.2633 55.2872L72.3011 57.9351L72.797 61.7627C72.9978 63.1607 72.3384 64.5438 71.1366 65.3563C69.9348 66.1688 68.3762 66.2245 67.1138 65.5322L63.6589 63.6565L60.0884 65.389C58.7703 66.0367 57.2216 65.8909 56.0816 65.0307C54.9416 64.1704 54.4301 62.7634 54.7156 61.3897L55.5346 57.6103L52.8091 54.8277C52.3742 54.3914 52.0794 53.8482 51.9109 53.2683ZM64.2992 48.7753L63.173 50.7904C62.5689 51.8927 61.4757 52.6075 60.2229 52.7729L57.9066 53.0487L59.5071 54.6688C60.3768 55.5415 60.7315 56.7623 60.4648 57.9651L59.9817 60.1906L62.0851 59.1823C63.2631 58.6415 64.5691 58.6591 65.6382 59.2753L67.6689 60.3732L67.3639 58.145C67.2163 56.9302 67.6814 55.7029 68.604 54.8721L70.3495 53.339L68.0542 52.9798C66.8301 52.7729 65.7798 51.9858 65.2534 50.881L64.2992 48.7753Z" fill="white"/>
</g>
</g>
<defs>
<filter id="filter0_b_0_291" x="-15" y="-15" width="158" height="158" filterUnits="userSpaceOnUse" color-interpolation-filters="sRGB">
<feFlood flood-opacity="0" result="BackgroundImageFix"/>
<feGaussianBlur in="BackgroundImageFix" stdDeviation="7.5"/>
<feComposite in2="SourceAlpha" operator="in" result="effect1_backgroundBlur_0_291"/>
<feBlend mode="normal" in="SourceGraphic" in2="effect1_backgroundBlur_0_291" result="shape"/>
</filter>
</defs>
</svg>
