<svg width="128" height="128" viewBox="0 0 128 128" fill="none" xmlns="http://www.w3.org/2000/svg">
<g id="Group 38495">
<g id="Ellipse 43" filter="url(#filter0_b_0_278)">
<circle cx="64" cy="64" r="64" fill="#1F4955" fill-opacity="0.15"/>
</g>
<g id="Group 38503">
<path id="Vector" d="M49.0863 71.1375L34.079 87.1294C32.6673 88.6343 32.7012 90.9568 34.1588 92.4181C34.875 93.1367 35.827 93.5323 36.8407 93.5323C37.8544 93.5323 38.8064 93.1367 39.5516 92.3891L54.4572 76.4081C56.2536 74.4835 57.2419 71.9734 57.2419 69.3387V68.129H56.0322C53.4121 68.129 50.8814 69.225 49.0863 71.1375ZM52.6887 74.7569L37.8108 90.7101C37.2919 91.2302 36.3895 91.2302 35.8705 90.7101C35.3407 90.179 35.3274 89.3323 35.8415 88.7855L50.8488 72.7935C51.883 71.6915 53.2439 70.9536 54.71 70.673C54.4536 72.1948 53.758 73.6113 52.6887 74.7569Z" fill="white" stroke="white"/>
<path id="Vector_2" d="M100.79 27C92.6673 27 85.0294 30.1633 79.2847 35.9081L51.9024 63.2903H50.5101C49.8677 63.2903 49.2629 63.5383 48.8069 63.9871L30.2915 82.2448C28.1685 84.3363 27 87.1198 27 90.0811C27 93.0423 28.1685 95.8258 30.2915 97.9185L32.452 100.05C33.7282 101.308 35.4218 102 37.223 102C40.9488 102 43.979 99.0036 43.979 95.2512C43.979 94.9294 44.1073 94.6258 44.3395 94.3972L61.3669 77.6081C61.8206 77.1605 62.0806 76.5399 62.0806 75.9061V73.5339C63.2806 72.6484 64.979 72.7379 66.0641 73.823L70.5484 78.3073L96.3302 52.5254C99.9859 48.8685 102 44.0093 102 38.8391V27H100.79ZM42.6411 92.6746C41.954 93.352 41.5597 94.2907 41.5597 95.3214C41.5597 97.6694 39.6145 99.5807 37.223 99.5807C36.0786 99.5807 34.9585 99.1234 34.1504 98.3274L31.9899 96.196C30.3315 94.5629 29.4194 92.3903 29.4194 90.0811C29.4194 87.7718 30.3315 85.6004 31.9899 83.9661L50.5101 65.7097H59.6613L59.6673 75.8855L42.6411 92.6746ZM62.0806 70.8339V63.2903H55.3234L80.9952 37.6185C85.9972 32.6177 92.5573 29.7423 99.5807 29.4448V33.756L66.9194 66.4173V71.4133C65.4726 70.4577 63.675 70.2762 62.0806 70.8339ZM94.6198 50.8149L70.5484 74.8863L69.3387 73.6766V67.4202L99.5807 37.1782V38.8391C99.5807 43.3621 97.8181 47.6153 94.6198 50.8149Z" fill="white" stroke="white"/>
</g>
</g>
<defs>
<filter id="filter0_b_0_278" x="-15" y="-15" width="158" height="158" filterUnits="userSpaceOnUse" color-interpolation-filters="sRGB">
<feFlood flood-opacity="0" result="BackgroundImageFix"/>
<feGaussianBlur in="BackgroundImageFix" stdDeviation="7.5"/>
<feComposite in2="SourceAlpha" operator="in" result="effect1_backgroundBlur_0_278"/>
<feBlend mode="normal" in="SourceGraphic" in2="effect1_backgroundBlur_0_278" result="shape"/>
</filter>
</defs>
</svg>
