<svg width="128" height="128" viewBox="0 0 128 128" fill="none" xmlns="http://www.w3.org/2000/svg">
<g id="Group 38495">
<g id="Ellipse 43" filter="url(#filter0_b_0_265)">
<circle cx="64" cy="64" r="64" fill="#1F4955" fill-opacity="0.15"/>
</g>
<g id="Group 732">
<path id="Vector" d="M64.875 98.75C45.637 98.75 30 83.113 30 63.875C30 44.637 45.637 29 64.875 29C84.113 29 99.75 44.637 99.75 63.875C99.75 83.113 84.113 98.75 64.875 98.75ZM64.875 33.8663C48.3297 33.8663 34.8663 47.3297 34.8663 63.875C34.8663 80.4203 48.3297 93.8837 64.875 93.8837C81.4203 93.8837 94.8837 80.4203 94.8837 63.875C94.8837 47.3297 81.4203 33.8663 64.875 33.8663Z" fill="white"/>
<path id="Vector_2" d="M60.2681 75.4895C59.6192 75.4895 59.0028 75.23 58.5486 74.7758L49.3676 65.5948C48.4268 64.6539 48.4268 63.0967 49.3676 62.1559C50.3084 61.2151 51.8656 61.2151 52.8064 62.1559L60.2681 69.6175L76.9432 52.9424C77.884 52.0016 79.4412 52.0016 80.382 52.9424C81.3228 53.8832 81.3228 55.4404 80.382 56.3813L61.9875 74.7758C61.5333 75.23 60.9169 75.4895 60.2681 75.4895Z" fill="white"/>
</g>
</g>
<defs>
<filter id="filter0_b_0_265" x="-15" y="-15" width="158" height="158" filterUnits="userSpaceOnUse" color-interpolation-filters="sRGB">
<feFlood flood-opacity="0" result="BackgroundImageFix"/>
<feGaussianBlur in="BackgroundImageFix" stdDeviation="7.5"/>
<feComposite in2="SourceAlpha" operator="in" result="effect1_backgroundBlur_0_265"/>
<feBlend mode="normal" in="SourceGraphic" in2="effect1_backgroundBlur_0_265" result="shape"/>
</filter>
</defs>
</svg>
